<?xml version="1.0" encoding="UTF-8" standalone="no"?>
<!-- Created with Inkscape (http://www.inkscape.org/) -->

<svg
   width="21.023642"
   height="30.595472"
   viewBox="0 0 21.023642 30.595472"
   version="1.1"
   id="svg1"
   xml:space="preserve"
   xmlns="http://www.w3.org/2000/svg"
   xmlns:svg="http://www.w3.org/2000/svg"><defs
     id="defs1" /><g
     id="g1"
     transform="matrix(1,0,0,0.71989348,-79.488178,-49.492677)"><path
       id="Layer copy 5"
       class="s0"
       d="m 79.916746,76.499993 h 1.142864 c 0.237136,0 0.428568,0.402501 0.428568,0.899999 V 102.6 c 0,0.4975 -0.191432,0.90001 -0.428568,0.90001 h -1.142864 c -0.237136,0 -0.428568,-0.40251 -0.428568,-0.90001 V 77.399993 c 0,-0.4975 0.191432,-0.899999 0.428568,-0.9 z"
       style="fill:#ffffff;fill-opacity:1;stroke-width:0.188983" /><path
       id="Layer copy 4"
       class="s0"
       d="m 84.672665,71.749992 h 1.142856 c 0.237144,0 0.428568,0.392499 0.428568,0.875 V 107.375 c 0,0.48251 -0.191424,0.87501 -0.428568,0.87501 h -1.142856 c -0.237144,0 -0.428576,-0.3925 -0.428576,-0.87501 V 72.624992 c 0,-0.482501 0.191432,-0.875 0.428576,-0.875 z"
       style="fill:#ffffff;stroke-width:0.188983" /><path
       id="Layer copy 3"
       class="s0"
       d="m 89.428576,68.75 h 1.142856 C 90.808576,68.75 91,69.13 91,69.6 v 40.8 c 0,0.47 -0.191424,0.85 -0.428568,0.85 H 89.428576 C 89.191432,111.25 89,110.87 89,110.4 V 69.600001 c 0,-0.47 0.191432,-0.85 0.428576,-0.850001 z"
       style="fill:#ffffff;fill-opacity:1;stroke-width:0.188983" /><path
       id="Layer copy"
       class="s0"
       d="m 98.940402,76.5 h 1.142848 c 0.23714,0 0.42857,0.4025 0.42857,0.9 v 25.2 c 0,0.4975 -0.19143,0.9 -0.42857,0.9 h -1.142848 c -0.23715,0 -0.42858,-0.4025 -0.42858,-0.9 V 77.399999 c 0,-0.4975 0.19143,-0.9 0.42858,-0.899999 z"
       style="fill:#ffffff;fill-opacity:1;stroke-width:0.188983" /><path
       id="Layer copy 2"
       class="s0"
       d="m 94.184479,71.875001 h 1.142864 c 0.237136,0 0.428568,0.39 0.428568,0.870001 V 107.255 c 0,0.48 -0.191432,0.87 -0.428568,0.87 h -1.142864 c -0.237136,0 -0.428568,-0.39 -0.428568,-0.87 V 72.745002 c 0,-0.480001 0.191432,-0.870001 0.428568,-0.870001 z"
       style="fill:#4a90c4;fill-opacity:1;stroke-width:0.188983" /></g><style
     id="style1">
		.s0 { fill: #000000 } 
	</style><style
     id="style1-8">
		.s0 { fill: #000000 } 
		.s1 { fill: #4a90c4 } 
	</style><style
     id="style1-0">
		.s0 { fill: #000000 } 
		.s1 { fill: #4a90c4 } 
	</style></svg>
