<?xml version="1.0" encoding="UTF-8"?>
<svg id="Capa_1" data-name="Capa 1" xmlns="http://www.w3.org/2000/svg" viewBox="0 0 373.1 50.32">
  <defs>
    <style>
      .cls-1 {
        fill: #4a90c4;
      }
    </style>
  </defs>
  <path class="cls-1" d="M0,49.59L31.76,0h24.96l32.57,49.59h-21.15l-14.91-23.93c-1.79-3.08-3.61-6.46-5.46-10.13-1.85-3.67-3.8-7.68-5.83-12.03h4.18c-2,4.37-3.86,8.4-5.58,12.1-1.73,3.69-3.44,7.05-5.15,10.07l-14.35,23.93H0Z"/>
  <path class="cls-1" d="M21.04,49.57c-1.34-1.74-2.73-3.39-4.16-4.93,14.81-16.69,36.25-23.91,56.19-12.64.08,2.74.1,5.44.06,8.11-18.48-10.66-38.16-4.78-52.08,9.46Z"/>
  <path class="cls-1" d="M108.28,49.82c-7.11,0-12.35-.82-15.69-2.46-3.35-1.64-5.02-4.12-5.02-7.42V0h18.72v38.57c0,1.18.38,2.04,1.15,2.58.77.54,2.09.82,3.96.82,1.04,0,1.83-.02,2.37-.07.54-.04,1.02-.1,1.44-.17l2.93,7.29c-1,.18-2.35.35-4.06.53-1.71.18-3.64.27-5.8.27Z"/>
  <path class="cls-1" d="M137.19,50.22c-5.33,0-10.13-.74-14.42-2.21-4.29-1.48-7.69-3.64-10.2-6.49-2.52-2.85-3.78-6.34-3.78-10.47s1.3-7.78,3.9-10.62c2.6-2.84,6.05-4.97,10.36-6.39,4.31-1.42,9.04-2.13,14.2-2.13,3.91,0,7.18.35,9.8,1.05,2.62.7,4.73,1.58,6.33,2.63,1.6,1.05,2.82,2.07,3.65,3.04h.69v-6.26h18.6v37.21h-18.53v-5.96h-.75c-.83,1-2.08,2-3.74,3.01-1.66,1.01-3.81,1.86-6.43,2.55-2.62.69-5.85,1.03-9.67,1.03ZM143.05,42.2c3.2,0,5.92-.47,8.14-1.4,2.23-.93,3.92-2.24,5.09-3.91,1.16-1.67,1.75-3.63,1.75-5.87s-.58-4.22-1.75-5.87c-1.17-1.65-2.86-2.94-5.09-3.86-2.23-.92-4.94-1.38-8.14-1.38s-6.04.47-8.27,1.41c-2.23.94-3.91,2.25-5.05,3.91-1.15,1.66-1.72,3.59-1.72,5.79s.57,4.11,1.72,5.79c1.14,1.69,2.84,3.01,5.09,3.96,2.25.95,4.99,1.43,8.24,1.43Z"/>
  <path class="cls-1" d="M179.51,49.59V12.38h17.35l.94,9.25h-1.37c1.08-2.29,2.67-4.15,4.77-5.59s4.57-2.51,7.39-3.2c2.83-.69,5.8-1.03,8.92-1.03,5.03,0,9.09.85,12.17,2.55,3.08,1.7,5.34,4.32,6.8,7.87h-2.18c1.04-2.37,2.73-4.33,5.09-5.87,2.35-1.54,5.14-2.68,8.36-3.43,3.22-.74,6.6-1.12,10.14-1.12,4.28,0,8.1.5,11.45,1.5,3.35,1,5.99,2.44,7.92,4.31,1.93,1.88,2.9,4.17,2.9,6.87v25.09h-18.72v-23.2c0-2.11-1.07-3.67-3.21-4.69-2.14-1.02-4.77-1.53-7.89-1.53-2.33,0-4.36.27-6.08.81-1.73.54-3.06,1.3-3.99,2.28-.94.98-1.4,2.12-1.4,3.43v22.9h-18.1v-23.46c0-1.82-1.01-3.27-3.03-4.34-2.02-1.08-4.63-1.61-7.83-1.61-2.21,0-4.19.27-5.96.8s-3.16,1.31-4.18,2.35c-1.02,1.03-1.53,2.29-1.53,3.78v22.5h-18.72Z"/>
  <path class="cls-1" d="M314.56,50.32c-6.99,0-13.04-.8-18.16-2.41-5.12-1.61-9.06-3.85-11.83-6.72-2.77-2.87-4.15-6.22-4.15-10.04s1.38-7.23,4.15-10.1c2.77-2.87,6.71-5.11,11.83-6.72,5.12-1.61,11.17-2.41,18.16-2.41s13.09.8,18.19,2.41c5.1,1.61,9.03,3.85,11.79,6.72,2.77,2.87,4.15,6.24,4.15,10.1s-1.38,7.16-4.15,10.04c-2.77,2.87-6.7,5.11-11.79,6.72-5.1,1.61-11.16,2.41-18.19,2.41ZM314.56,42.47c3.33,0,6.12-.49,8.36-1.48s3.93-2.34,5.05-4.06c1.12-1.72,1.69-3.66,1.69-5.81s-.56-4.15-1.69-5.86c-1.12-1.71-2.81-3.05-5.05-4.03-2.25-.98-5.03-1.46-8.36-1.46s-6.11.49-8.33,1.46c-2.23.98-3.9,2.32-5.02,4.03-1.12,1.71-1.68,3.66-1.68,5.86s.56,4.09,1.68,5.81c1.12,1.72,2.8,3.07,5.02,4.06s5,1.48,8.33,1.48Z"/>
  <path class="cls-1" d="M362.31,50.22c-3.04,0-5.6-.55-7.68-1.65-2.08-1.1-3.12-2.46-3.12-4.08s1.04-2.98,3.12-4.08c2.08-1.1,4.64-1.65,7.68-1.65s5.59.55,7.67,1.65c2.08,1.1,3.12,2.46,3.12,4.08s-1.04,2.98-3.12,4.08c-2.08,1.1-4.64,1.65-7.67,1.65Z"/>
</svg>