<?xml version="1.0" encoding="UTF-8" standalone="no"?>
<!-- Created with Inkscape (http://www.inkscape.org/) -->

<svg
   width="78.660912"
   height="30.595472"
   viewBox="0 0 78.660912 30.595472"
   version="1.1"
   id="svg1"
   xml:space="preserve"
   xmlns="http://www.w3.org/2000/svg"
   xmlns:svg="http://www.w3.org/2000/svg"><defs
     id="defs1" /><g
     id="g1"
     transform="matrix(1,0,0,0.71989348,-79.488178,-49.492677)"><path
       id="Layer copy 5"
       class="s0"
       d="m 79.916746,76.499993 h 1.142864 c 0.237136,0 0.428568,0.402501 0.428568,0.899999 V 102.6 c 0,0.4975 -0.191432,0.90001 -0.428568,0.90001 h -1.142864 c -0.237136,0 -0.428568,-0.40251 -0.428568,-0.90001 V 77.399993 c 0,-0.4975 0.191432,-0.899999 0.428568,-0.9 z"
       style="fill:#ffffff;fill-opacity:1;stroke-width:0.188983" /><path
       id="Layer copy 4"
       class="s0"
       d="m 84.672665,71.749992 h 1.142856 c 0.237144,0 0.428568,0.392499 0.428568,0.875 V 107.375 c 0,0.48251 -0.191424,0.87501 -0.428568,0.87501 h -1.142856 c -0.237144,0 -0.428576,-0.3925 -0.428576,-0.87501 V 72.624992 c 0,-0.482501 0.191432,-0.875 0.428576,-0.875 z"
       style="fill:#ffffff;stroke-width:0.188983" /><path
       id="Layer copy 3"
       class="s0"
       d="m 89.428576,68.75 h 1.142856 C 90.808576,68.75 91,69.13 91,69.6 v 40.8 c 0,0.47 -0.191424,0.85 -0.428568,0.85 H 89.428576 C 89.191432,111.25 89,110.87 89,110.4 V 69.600001 c 0,-0.47 0.191432,-0.85 0.428576,-0.850001 z"
       style="fill:#ffffff;fill-opacity:1;stroke-width:0.188983" /><path
       id="Layer copy"
       class="s0"
       d="m 98.940402,76.5 h 1.142848 c 0.23714,0 0.42857,0.4025 0.42857,0.9 v 25.2 c 0,0.4975 -0.19143,0.9 -0.42857,0.9 h -1.142848 c -0.23715,0 -0.42858,-0.4025 -0.42858,-0.9 V 77.399999 c 0,-0.4975 0.19143,-0.9 0.42858,-0.899999 z"
       style="fill:#ffffff;fill-opacity:1;stroke-width:0.188983" /><path
       id="Layer copy 2"
       class="s0"
       d="m 94.184479,71.875001 h 1.142864 c 0.237136,0 0.428568,0.39 0.428568,0.870001 V 107.255 c 0,0.48 -0.191432,0.87 -0.428568,0.87 h -1.142864 c -0.237136,0 -0.428568,-0.39 -0.428568,-0.87 V 72.745002 c 0,-0.480001 0.191432,-0.870001 0.428568,-0.870001 z"
       style="fill:#4a90c4;fill-opacity:1;stroke-width:0.188983" /></g><style
     id="style1">
		.s0 { fill: #000000 } 
	</style><style
     id="style1-8">
		.s0 { fill: #000000 } 
		.s1 { fill: #4a90c4 } 
	</style><style
     id="style1-0">
		.s0 { fill: #000000 } 
		.s1 { fill: #4a90c4 } 
	</style><g
     id="g7"
     transform="matrix(0.06611415,0,0,0.06611415,22.890979,8.3491932)"
     style="fill:#ffffff"><path
       class="s0"
       d="m 716.68,253.69 c -18.86,-3.06 -34.29,-14.46 -43.23,-31.88 -5.14,-10.01 -7.27,-19.14 -7.32,-31.14 0,-10.84 1.81,-19.28 5.98,-27.57 7.41,-14.83 20.2,-25.39 37.44,-31 7.6,-2.46 12.97,-3.29 20.9,-3.29 16.73,0 29.7,5.05 40.45,15.66 9.27,9.17 15.24,20.71 18.02,34.61 1.3,6.35 1.2,19.74 -0.19,26.04 -2.78,12.79 -8.53,23.21 -17.38,31.42 -8.8,8.25 -19.79,13.95 -31.74,16.45 -5.98,1.3 -17.24,1.62 -22.94,0.7 z m 23.31,-7.37 c 7.32,-1.34 12.23,-3.8 17.14,-8.62 7,-6.81 10.52,-17.52 10.98,-33.59 0.74,-23.08 -5.14,-42.12 -17.01,-55.05 -5,-5.47 -11.4,-9.68 -18.07,-11.91 -4.31,-1.48 -14.41,-1.85 -19.14,-0.7 -13.02,3.06 -21.41,12.79 -24.6,28.54 -2.64,12.97 -1.39,31.93 3.01,45.13 3.71,11.17 10.7,21.87 18.3,28.13 8.8,7.18 18.91,9.96 29.38,8.06 z"
       id="path1"
       style="fill:#ffffff" /><path
       class="s1"
       d="m 826.96,253.46 c -5,-1.25 -8.99,-5.1 -10.29,-9.92 -1.81,-6.63 1.02,-12.79 7.32,-16.13 2.78,-1.48 9.41,-1.53 12.14,-0.05 4.73,2.5 7.41,7.14 7.41,12.65 0,3.94 -0.97,6.58 -3.43,9.41 -2.87,3.24 -8.85,5.1 -13.16,4.03 z"
       id="path2"
       style="fill:#ffffff;fill-opacity:1" /><path
       class="s0"
       d="m 338.49,252.95 c -10.84,-1.58 -18.35,-8.66 -19.69,-18.53 -1.3,-9.41 2.92,-17.75 12.05,-23.82 5.98,-3.94 17.24,-8.94 32.9,-14.55 2.92,-1.07 8.16,-2.92 11.58,-4.17 l 6.26,-2.22 -0.05,-15.48 c 0,-14.18 -0.09,-15.89 -1.07,-20.3 -1.81,-8.39 -4.82,-13.34 -9.64,-15.8 -1.95,-1.02 -2.83,-1.16 -7.09,-1.16 -5.79,0.05 -8.9,1.07 -12.65,4.12 -4.4,3.57 -6.44,7.46 -9.17,17.56 -2.32,8.57 -5,11.63 -10.84,12.23 -9.31,0.97 -14.18,-7.27 -9.45,-16.08 3.71,-7 17.38,-16.54 30.35,-21.27 7.41,-2.73 13.53,-3.89 20.57,-3.94 7,0 10.19,0.6 14.69,2.92 6.35,3.2 10.01,8.94 12.28,19.04 0.93,4.17 0.97,6.16 1.3,39.62 0.23,24.05 0.51,35.86 0.88,37.21 2.27,8.62 8.02,10.29 20.16,5.88 5.33,-1.95 6.3,-1.76 6.3,1.16 v 1.81 l -7.74,3.75 c -22.89,11.17 -23.35,11.35 -26.13,11.35 -3.24,0 -5.24,-1.3 -7.55,-4.82 -1.62,-2.46 -3.98,-8.85 -3.98,-10.84 -0.05,-2.59 -0.56,-2.41 -9.31,3.48 -12.84,8.57 -19.65,11.82 -27.06,12.88 -3.66,0.51 -4.03,0.51 -7.88,-0.05 z m 22.1,-14.09 c 3.52,-0.74 9.04,-3.38 16.22,-7.74 l 4.77,-2.92 0.14,-16.31 0.09,-16.31 -3.8,1.39 c -19.88,7.23 -29.66,11.72 -33.22,15.2 -3.52,3.43 -4.91,6.67 -4.91,11.63 0,4.73 1.34,8.11 4.4,11.03 4.17,4.12 9.68,5.47 16.31,4.03 z"
       id="path3"
       style="fill:#ffffff" /><path
       class="s0"
       d="m 13.76,251.28 c -0.19,-0.14 -0.32,-1.48 -0.32,-2.92 0,-2.59 0.05,-2.69 1.44,-2.97 0.79,-0.14 2.13,-0.28 2.92,-0.28 4.63,0 11.4,-3.01 15.85,-7.09 7.37,-6.77 9.45,-10.94 30.54,-61.26 1.71,-4.08 4.54,-10.75 6.26,-14.83 1.71,-4.08 5.56,-13.16 8.48,-20.16 2.97,-7 7.69,-18.26 10.52,-25.02 2.83,-6.77 9.31,-22.2 14.41,-34.29 5.05,-12.09 9.55,-22.7 10.01,-23.54 0.79,-1.58 2.22,-2.22 3.8,-1.71 0.56,0.19 1.48,1.44 2.32,3.15 0.74,1.58 3.66,7.88 6.53,13.99 5.24,11.21 8.39,17.89 27.57,58.38 10.05,21.18 14.41,30.44 28.87,61.16 8.62,18.35 13.99,29.19 17.38,34.98 5.65,9.55 12.88,15.2 20.9,16.36 l 3.52,0.51 v 2.92 2.92 l -34.15,-0.09 -34.2,-0.14 -0.14,-2.5 c -0.09,-1.39 0.05,-2.69 0.32,-2.97 0.28,-0.28 3.15,-0.65 6.39,-0.83 3.24,-0.19 7,-0.7 8.34,-1.07 6.07,-1.9 7.88,-6.26 5.65,-13.53 -0.56,-1.76 -5.98,-13.81 -12.09,-26.83 -6.12,-12.97 -12.42,-26.41 -13.99,-29.75 l -2.83,-6.16 H 112.47 76.88 l -0.93,2.22 c -3.34,7.65 -18.4,44.53 -19.41,47.59 -4.36,12.46 -2.41,19.6 6.53,24.09 4.17,2.13 7.92,3.01 15.01,3.66 l 6.02,0.51 v 2.78 2.78 l -35.03,0.14 c -19.23,0.05 -35.17,-0.05 -35.31,-0.23 z m 128.12,-91.7 2.13,-0.28 -2.83,-5.88 c -4.68,-9.82 -14.78,-31.37 -22.89,-48.79 -4.26,-9.13 -7.88,-16.59 -8.02,-16.59 -0.19,0 -0.97,1.71 -1.85,3.85 -5.42,13.25 -27.25,65.57 -27.85,66.68 -0.42,0.79 0.79,0.83 25.86,0.97 14.46,0.05 27.89,0.14 29.84,0.23 1.95,0.05 4.49,-0.05 5.61,-0.19 z"
       id="path4"
       style="fill:#ffffff" /><path
       class="s0"
       d="m 235.39,248.69 v -2.97 l 4.59,-0.28 c 9.5,-0.65 12.28,-2.97 13.48,-11.26 0.37,-2.64 0.46,-27.71 0.37,-90.31 -0.14,-82.02 -0.19,-86.79 -0.97,-89.1 -0.46,-1.34 -1.44,-3.1 -2.18,-3.94 -1.3,-1.44 -1.39,-1.48 -5.19,-1.44 -3.24,0.05 -4.54,0.28 -8.29,1.71 -5.14,1.99 -6.21,2.09 -6.9,0.74 -1.25,-2.32 -0.74,-2.69 13.53,-9.45 27.62,-13.02 26.27,-12.51 28.31,-10.89 l 1.25,0.97 v 96.01 c 0.05,52.82 0.23,98.74 0.46,102.03 0.19,3.34 0.74,6.95 1.16,8.11 1.58,4.45 4.87,6.26 12.19,6.77 l 4.73,0.32 v 2.92 2.97 h -28.27 -28.27 c 0,0 0,-2.92 0,-2.91 z"
       id="path5"
       style="fill:#ffffff" /><path
       class="s0"
       d="m 439.55,250.59 c -0.37,-1.44 -0.32,-3.75 0.09,-4.36 0.19,-0.28 2.64,-0.7 5.47,-0.97 7.69,-0.74 9.78,-2.09 11.58,-7.55 0.79,-2.36 0.88,-5.19 1.02,-41.01 0.19,-40.68 0.05,-43.23 -1.9,-46.2 -2.83,-4.12 -7.78,-4.49 -17.33,-1.3 -6.9,2.27 -7.55,2.22 -7.55,-0.97 0,-1.71 0.09,-1.76 3.01,-3.15 1.67,-0.79 3.1,-1.44 3.24,-1.44 0.09,0 6.67,-3.01 14.55,-6.72 8.34,-3.89 14.97,-6.72 15.75,-6.72 3.85,0 7.74,7.6 8.62,16.91 0.14,1.53 0.37,3.48 0.51,4.36 l 0.23,1.53 4.49,-4.49 c 12.56,-12.7 25.58,-18.95 39.48,-18.95 10.01,0 18.58,3.06 24.05,8.57 3.34,3.38 6.49,9.17 7.46,13.76 0.32,1.58 0.7,2.87 0.88,2.83 0.14,0 1.53,-1.48 3.06,-3.29 1.53,-1.81 4.54,-4.82 6.72,-6.72 12.65,-11.17 27.06,-16.54 40.27,-14.92 13.62,1.62 22.1,8.16 25.95,19.88 2.46,7.65 2.46,7.32 2.83,47.49 0.23,26.23 0.51,38.13 0.88,39.57 1.67,6.16 4.59,8.16 13.11,8.71 l 4.54,0.28 v 2.97 2.92 h -28.27 -28.31 l 0.14,-2.87 0.14,-2.92 4.49,-0.32 c 5.79,-0.42 7.88,-1.02 9.96,-2.83 4.22,-3.71 4.45,-6.16 4.49,-41.56 0.05,-34.89 -0.32,-38.64 -4.08,-46.57 -2.09,-4.4 -4.68,-7.18 -8.48,-9.13 -4.17,-2.18 -6.77,-2.73 -12.37,-2.73 -10.56,0.05 -20.53,4.91 -30.26,14.78 l -3.85,3.85 v 31.6 c 0.05,34.47 0.32,41.75 1.85,45.87 1.67,4.4 4.08,5.75 11.82,6.53 l 5.1,0.51 v 2.78 2.78 l -28.17,0.14 -28.17,0.09 0.14,-2.87 0.14,-2.92 4.4,-0.37 c 7.46,-0.6 10.05,-1.81 11.86,-5.42 1.81,-3.61 2.04,-7.74 2.04,-39.76 0,-36.42 -0.23,-38.64 -4.4,-46.85 -1.48,-2.97 -5.33,-6.95 -8.02,-8.34 -6.49,-3.34 -16.45,-3.15 -25.16,0.42 -6.12,2.55 -14.32,8.25 -18.77,13.07 l -1.9,2.09 0.14,29.38 c 0.32,48.51 0.28,48.05 3.75,51.9 1.99,2.18 4.49,3.01 10.7,3.48 l 4.26,0.32 v 2.92 2.97 h -27.99 -27.99 l -0.28,-1.02 z"
       id="path6"
       style="fill:#ffffff" /><path
       class="s0"
       d="m 85.54,44.2 c -0.74,-1.95 -0.28,-2.32 7.51,-6.67 4.26,-2.36 13.67,-7.88 20.94,-12.19 20.76,-12.42 21.73,-12.93 23.72,-12.6 4.22,0.6 16.82,6.35 16.82,7.6 0,0.46 -1.11,1.02 -3.01,1.53 -14.55,4.17 -38.04,12.46 -55.19,19.51 -4.73,1.99 -9.04,3.57 -9.55,3.57 -0.56,0 -1.11,-0.32 -1.25,-0.74 z"
       id="path7"
       style="fill:#ffffff" /></g></svg>
